<?xml version="1.0" encoding="utf-8"?>
<!-- Generator: Adobe Illustrator 26.0.2, SVG Export Plug-In . SVG Version: 6.00 Build 0)  -->
<svg version="1.1" xmlns="http://www.w3.org/2000/svg" xmlns:xlink="http://www.w3.org/1999/xlink" x="0px" y="0px"
	 viewBox="0 0 20 20" style="enable-background:new 0 0 20 20;" xml:space="preserve">
<style type="text/css">
	.st0{display:none;}
	.st1{display:inline;}
	.st2{fill:#FFFFFF;}
</style>
<g id="レイヤー_1" class="st0">
	<rect x="0" class="st1" width="20" height="20"/>
</g>
<g id="レイヤー_2" class="st0">
	<g class="st1">
		<polygon class="st2" points="19.8,10.4 19.8,10.4 16.9,7.5 16.9,2.8 16.9,2.8 16.9,2.8 16.9,2.8 14.6,2.8 14.6,2.8 14.6,2.8 
			14.6,2.8 14.6,4.2 14.6,5.1 10,0.5 10,0.5 10,0.5 10,0.5 4.3,6.3 0.2,10.4 0.2,10.4 0.2,10.4 3.5,10.4 3.5,19.4 3.5,19.5 
			3.5,19.5 3.5,19.5 8.2,19.5 8.2,15.6 8.2,15.5 11.8,15.5 11.8,19.5 11.8,19.5 11.8,19.5 11.8,19.5 16.5,19.5 16.5,10.4 18.4,10.4 
			19.8,10.4 		"/>
	</g>
</g>
<g id="レイヤー_3">
	<g>
		<path class="st2" d="M17.9,10.9l1.5-5.6l0.4-1.5h0l0,0H6.1L5.5,1.7C5.4,1.2,5,0.9,4.5,0.9H0.2v1.2c0,0.6,0.5,1,1,1h2.4l2.8,10.7
			c0.1,0.5,0.5,0.8,1,0.8h10.7v-2.2v0l0,0v0H8.4l-0.3-1.2L8,10.9L17.9,10.9L17.9,10.9z"/>
		<path class="st2" d="M8.4,15.5c-1,0-1.8,0.8-1.8,1.8c0,1,0.8,1.8,1.8,1.8c1,0,1.8-0.8,1.8-1.8C10.2,16.3,9.4,15.5,8.4,15.5z"/>
		<circle class="st2" cx="16.4" cy="17.3" r="1.8"/>
	</g>
</g>
<g id="レイヤー_4" class="st0">
	<g class="st1">
		<path class="st2" d="M17.8,2.1C14.6-0.4,10,4.8,10,4.8S5.4-0.4,2.2,2.1C-4.7,7.4,10,18.6,10,18.6C10,18.6,24.7,7.4,17.8,2.1z"/>
	</g>
</g>
<g id="レイヤー_7" class="st0">
	<g class="st1">
		<path class="st2" d="M18.3,2.9H1.7c-0.7,0-1.4,0.6-1.4,1.3v11.6c0,0.7,0.6,1.3,1.4,1.3h16.6c0.7,0,1.3-0.6,1.3-1.3V4.2
			C19.7,3.5,19.1,2.9,18.3,2.9z M17.9,15.9H2.1c-0.3,0-0.6-0.3-0.6-0.6V4.7c0-0.3,0.3-0.6,0.6-0.6h15.7c0.3,0,0.6,0.3,0.6,0.6v10.7
			C18.5,15.7,18.2,15.9,17.9,15.9z"/>
		<path class="st2" d="M4.2,11.3C4.2,11.3,4.2,11.3,4.2,11.3C4.2,11.3,4.2,11.3,4.2,11.3C4.2,11.3,4.2,11.4,4.2,11.3
			C4.2,11.4,4.3,11.4,4.2,11.3C4.3,11.4,4.3,11.4,4.2,11.3c0.1,0,0.1,0,0.1,0c0,0,0,0,0,0c0,0,0,0,0,0c0,0,0,0,0,0c0,0,0,0,0,0
			c0,0,0,0,0,0c0,0,0,0,0,0c0,0,0,0,0,0c1.3,0.3,2.7,0.3,3.9,0c0.1,0,0.3,0,0.4-0.1c0.1-0.1,0.1-0.2,0-0.4c-0.1-0.2-0.2-0.5-0.4-0.7
			C8,9.9,7.4,9.8,7,9.5V9.1c0.2-0.1,0.2-0.4,0.3-0.6c0,0,0,0,0,0c0.2,0.1,0.3-0.2,0.3-0.3c0-0.2,0.1-0.3-0.1-0.4
			C7.7,7.4,7.6,7,7.3,6.7c-0.1,0-0.2-0.1-0.2-0.1C7,6.6,7,6.5,6.9,6.4C6.7,6.2,6.5,6.2,6.3,6.2c-0.3,0-0.7,0.2-0.9,0.5
			C5.3,6.9,5.2,7.2,5.2,7.5c0,0.1,0,0.3,0.1,0.4C5.1,7.9,5.2,8.1,5.2,8.2c0,0.2,0.1,0.3,0.3,0.3c0,0.2,0.1,0.5,0.3,0.6v0.4
			C5.4,9.8,4.9,10,4.5,10.2c-0.2,0.1-0.3,0.3-0.4,0.5C4.1,10.8,3.9,11.3,4.2,11.3z"/>
		<polygon class="st2" points="16.2,6.6 10.8,6.6 10.8,7.1 16.2,7.1 16.2,6.6 16.2,6.6 16.2,6.6 		"/>
		<polygon class="st2" points="16.2,13.3 16.2,13.3 3.9,13.3 3.9,13.8 16.2,13.8 16.2,13.3 		"/>
		<polygon class="st2" points="16.2,8.4 10.8,8.4 10.8,9 16.2,9 16.2,8.4 16.2,8.4 16.2,8.4 		"/>
		<rect x="10.8" y="10.3" class="st2" width="4.3" height="0.6"/>
	</g>
</g>
<g id="レイヤー_6" class="st0">
	<g class="st1">
		<path class="st2" d="M19.4,18.1l-5.4-5.5c0.3-0.3,0.5-0.7,0.7-1.1c0,0,0,0,0,0c0.1-0.2,0.2-0.3,0.3-0.5c0-0.1,0.1-0.2,0.1-0.2
			c0-0.1,0.1-0.2,0.1-0.3c0-0.1,0.1-0.2,0.1-0.3c0-0.1,0.1-0.2,0.1-0.4c0-0.1,0-0.1,0-0.2c0.1-0.6,0.2-1.1,0.2-1.7
			c0-1-0.2-2-0.6-2.9c0,0,0,0,0,0c0-0.1-0.1-0.2-0.1-0.3c0,0,0,0,0,0c0-0.1-0.1-0.2-0.2-0.3c0,0,0,0,0,0c-1.3-2.4-3.8-4-6.7-4
			c-0.6,0-1.2,0.1-1.8,0.2c0,0-0.1,0-0.1,0c-0.1,0-0.3,0.1-0.4,0.1c-0.1,0-0.2,0-0.2,0.1c-0.1,0-0.2,0.1-0.4,0.1C5,0.9,5,1,4.9,1
			C4.3,1.2,3.8,1.6,3.3,2C2.8,2.3,2.4,2.8,2,3.2C1.7,3.6,1.5,3.9,1.3,4.3c0,0,0,0,0,0C1.2,4.5,1.1,4.7,1,4.9C1,4.9,1,5,0.9,5.1
			C0.9,5.2,0.8,5.3,0.8,5.4c0,0.1,0,0.2-0.1,0.2c0,0.1-0.1,0.3-0.1,0.4c0,0,0,0.1,0,0.1C0.4,6.7,0.4,7.3,0.4,7.9
			c0,4.2,3.4,7.6,7.6,7.6c0.6,0,1.2-0.1,1.8-0.2c0,0,0,0,0.1,0c0.1,0,0.3-0.1,0.4-0.1c0.1,0,0.1,0,0.2-0.1c0.1,0,0.2-0.1,0.4-0.1
			c0.1,0,0.1-0.1,0.2-0.1c0.1-0.1,0.3-0.1,0.4-0.2c0,0,0.1,0,0.1-0.1c0.4-0.2,0.7-0.4,1.1-0.7l5.4,5.5c0.2,0.2,0.4,0.3,0.6,0.3
			c0.2,0,0.5-0.1,0.6-0.3C19.7,19,19.7,18.5,19.4,18.1z M13.7,8c0,1.2-0.4,2.4-1.1,3.3c-0.4,0.5-0.8,0.9-1.3,1.3
			c-0.9,0.7-2.1,1.1-3.3,1.1c-3.1,0-5.7-2.6-5.7-5.7c0-1.2,0.4-2.4,1.1-3.3c0.4-0.5,0.8-0.9,1.3-1.3C5.6,2.6,6.7,2.2,8,2.2
			C11.1,2.2,13.7,4.8,13.7,8z"/>
	</g>
</g>
<g id="レイヤー_5" class="st0">
	<g class="st1">
		<path class="st2" d="M2.1,18.8c2.2,0.6,5,0.9,7.9,0.9c3,0,5.7-0.3,7.9-0.9c0.4-0.1,0.6-0.5,0.5-0.9c0-0.1,0-0.2-0.1-0.3
			c0,0,0,0,0,0c0-0.1,0-0.2-0.1-0.3c0-0.2-0.1-0.3-0.1-0.5c0-0.1-0.1-0.1-0.1-0.2c0,0,0,0,0,0c0-0.1-0.1-0.2-0.1-0.2
			c-0.3-0.7-0.6-1.2-0.9-1.4c-0.3-0.3-1.9-1.1-3.2-1.8c-1-0.5-1.5-0.9-1.7-1.1v-0.8v-0.5c0.1,0,0.1-0.1,0.2-0.2c0,0,0,0,0,0
			c0.2-0.2,0.3-0.4,0.4-0.7c0,0,0-0.1,0-0.1c0.2-0.5,0.3-1,0.3-1.2c0,0,0,0,0,0c0.1,0,0.1,0,0.2,0c0.7,0,1-1.4,1-1.8
			c0-0.4-0.3-0.6-0.4-0.7c0-0.1,0.1-0.2,0.1-0.3c0,0,0,0,0,0c0-0.1,0.1-0.3,0.2-0.5c0-0.1,0.1-0.3,0.1-0.5c0-0.1,0-0.3,0-0.4
			c0-0.3-0.1-0.6-0.2-0.8c-0.1-0.2-0.2-0.4-0.3-0.6l0,0c-0.1-0.1-0.2-0.2-0.3-0.3c-0.5-0.4-1-0.8-1.2-0.8C11.8,1,11.2,0.4,10,0.3
			c-0.1,0-0.1,0-0.2,0h0c-0.9,0-2.4,0.8-3.2,1.8c0,0,0,0,0,0C6.5,2.3,6.4,2.4,6.3,2.5C6.2,2.7,6.1,2.9,6,3C5.9,3.3,5.8,3.6,5.8,3.8
			c0,0.1-0.1,0.2-0.1,0.4c-0.1,0.4,0,0.7,0,1.2v0c0,0.2,0.1,0.4,0.1,0.6c0,0,0,0,0,0c0,0.1,0.1,0.2,0.1,0.3C5.8,6.3,5.5,6.5,5.6,6.8
			c0,0.4,0.3,1.9,1,1.9c0.1,0,0.1,0,0.2,0c0,0,0,0,0,0c0,0.1,0.1,0.5,0.2,0.8C7,9.6,7,9.8,7.1,9.9c0,0,0,0.1,0,0.1
			c0.1,0.2,0.2,0.5,0.4,0.7c0,0,0,0,0.1,0.1c0.1,0.1,0.1,0.1,0.2,0.1v0.5v0.8c-0.2,0.1-0.7,0.6-1.7,1.1c-1.3,0.7-2.9,1.5-3.2,1.8
			c-0.3,0.2-0.6,0.7-0.9,1.4c-0.1,0.1-0.1,0.3-0.2,0.5c-0.1,0.1-0.1,0.3-0.1,0.5c-0.1,0.2-0.1,0.4-0.1,0.6
			C1.5,18.3,1.7,18.7,2.1,18.8z"/>
	</g>
</g>
</svg>
