<?xml version="1.0" encoding="utf-8"?>
<!-- Generator: Adobe Illustrator 26.0.2, SVG Export Plug-In . SVG Version: 6.00 Build 0)  -->
<svg version="1.1" id="レイヤー_1" xmlns="http://www.w3.org/2000/svg" xmlns:xlink="http://www.w3.org/1999/xlink" x="0px"
	 y="0px" viewBox="0 0 64 51" style="enable-background:new 0 0 64 51;" xml:space="preserve">
<style type="text/css">
	.st0{enable-background:new    ;}
	.st1{fill:#FFFFFF;}
</style>
<g id="グループ_22" transform="translate(-46 -2)">
	<g class="st0">
		<path class="st1" d="M63.2,6.3V21h-2.4v-7.4c0-1.1,0-2.9,0-5.2h-0.3c-0.5,2.1-0.9,3.8-1.2,5l-2,7.6h-3l-1.9-7.5
			c-0.1-0.4-0.5-2.1-1.3-5.1h-0.3c0,1.7,0.1,3.5,0.1,5.2V21h-2.3V6.3h4.2l1.9,7.5c0.4,1.7,0.8,3.3,1.1,4.9H56
			c0.1-0.4,0.3-1.3,0.6-2.5c0.2-0.9,0.4-1.7,0.5-2.3L59,6.3H63.2z"/>
		<path class="st1" d="M76.4,6.3v2h-7.2v3.9h5.4v2h-5.4V19h7.3v2h-9.9V6.3H76.4z"/>
		<path class="st1" d="M90.3,6.3V21h-3.1l-3.6-7.6c-0.8-1.6-1.5-3.3-2.1-4.9h-0.3c0.1,1.6,0.1,3.4,0.1,5.3V21H79V6.3h3.9l3.1,6.5
			c0.8,1.7,1.4,3.4,2,5.1h0.3c-0.1-2-0.2-3.8-0.2-5.4V6.3H90.3z"/>
		<path class="st1" d="M95.6,6.3L95,11.8h-1.4l-0.5-5.5H95.6z"/>
		<path class="st1" d="M108,9.7l-2.5,0.7c-0.4-1.6-1.3-2.4-2.6-2.4c-0.8,0-1.5,0.2-1.9,0.6c-0.4,0.3-0.6,0.8-0.6,1.3
			c0,0.7,0.2,1.2,0.6,1.6c0.4,0.3,1.1,0.6,2.1,0.9l0.8,0.2c1.7,0.5,2.9,1.1,3.5,1.8c0.5,0.6,0.8,1.5,0.8,2.5c0,1.4-0.5,2.5-1.5,3.3
			c-0.9,0.7-2.2,1.1-3.8,1.1c-1.6,0-2.8-0.4-3.8-1.1c-0.9-0.6-1.5-1.6-1.8-2.7l2.4-0.8c0.2,0.9,0.6,1.6,1.2,2.1
			c0.5,0.4,1.1,0.6,1.9,0.6c1.9,0,2.8-0.7,2.8-2.1c0-0.7-0.2-1.2-0.6-1.6c-0.4-0.3-1.2-0.7-2.3-1l-0.8-0.2c-1.6-0.5-2.8-1.1-3.4-1.9
			c-0.5-0.6-0.8-1.5-0.8-2.6c0-1.2,0.5-2.2,1.4-3c0.9-0.7,2-1,3.5-1C105.5,6,107.2,7.3,108,9.7z"/>
	</g>
	<g class="st0">
		<path class="st1" d="M65.9,26.3V41h-2.4v-7.4c0-1.1,0-2.9,0-5.2h-0.3c-0.5,2.1-0.9,3.8-1.2,5L60,41h-3L55,33.5
			c-0.1-0.4-0.5-2.1-1.3-5.1h-0.3c0,1.7,0.1,3.5,0.1,5.2V41h-2.3V26.3h4.2l1.9,7.5c0.4,1.7,0.8,3.3,1.1,4.9h0.3
			c0.1-0.4,0.3-1.3,0.6-2.5c0.2-0.9,0.4-1.7,0.5-2.3l1.9-7.6H65.9z"/>
		<path class="st1" d="M75.7,26.3L80.2,41h-2.7l-1.3-4.3h-4.5L70.5,41h-2.4l4.5-14.7H75.7z M75.8,34.8l-0.9-3
			c-0.1-0.4-0.4-1.6-0.9-3.6h-0.2c-0.3,1.4-0.6,2.6-0.9,3.6l-0.8,3H75.8z"/>
		<path class="st1" d="M82.4,26.3h5.3c3.5,0,5.2,1.3,5.2,4c0,1-0.3,1.8-0.9,2.5c-0.5,0.6-1.2,1-2.1,1.3l3.4,7h-2.8l-3-6.6l-0.7,0
			h-2.1V41h-2.5V26.3z M84.9,28.2v4.3h2.6c1.9,0,2.9-0.7,2.9-2.2c0-1.4-0.9-2.1-2.8-2.1H84.9z"/>
		<path class="st1" d="M105.9,26.3v2.1h-4.4V41h-2.6V28.4h-4.4v-2.1H105.9z"/>
	</g>
	<g class="st0">
		<path class="st1" d="M50.6,44.7c0.9,0,1.5,0.3,2,0.9c0.4,0.6,0.6,1.3,0.6,2.3c0,1.1-0.3,1.9-0.8,2.5c-0.5,0.5-1.1,0.7-1.8,0.7
			c-0.9,0-1.5-0.3-2-0.9c-0.4-0.6-0.6-1.3-0.6-2.3c0-1.1,0.3-1.9,0.8-2.5C49.2,44.9,49.8,44.7,50.6,44.7z M50.6,45.5
			c-0.5,0-0.9,0.2-1.2,0.7c-0.2,0.4-0.4,1-0.4,1.7c0,0.8,0.2,1.4,0.5,1.9c0.3,0.3,0.6,0.5,1,0.5c0.5,0,0.9-0.2,1.1-0.7
			c0.2-0.4,0.4-1,0.4-1.7c0-0.8-0.2-1.5-0.5-1.9C51.4,45.7,51,45.5,50.6,45.5z"/>
		<path class="st1" d="M59.2,44.8V51h-1.3l-1.5-3.2c-0.3-0.7-0.6-1.4-0.9-2.1h-0.1c0,0.7,0.1,1.4,0.1,2.2v3h-1v-6.2H56l1.3,2.8
			c0.3,0.7,0.6,1.4,0.8,2.1h0.1c-0.1-0.8-0.1-1.6-0.1-2.3v-2.6H59.2z"/>
		<path class="st1" d="M61.7,44.8v5.3h2.9V51h-4v-6.2H61.7z"/>
		<path class="st1" d="M66.7,44.8V51h-1.1v-6.2H66.7z"/>
		<path class="st1" d="M73,44.8V51h-1.3l-1.5-3.2c-0.3-0.7-0.6-1.4-0.9-2.1h-0.1c0,0.7,0.1,1.4,0.1,2.2v3h-1v-6.2h1.6l1.3,2.8
			c0.3,0.7,0.6,1.4,0.8,2.1h0.1C72,48.8,72,48.1,72,47.4v-2.6H73z"/>
		<path class="st1" d="M78.6,44.8v0.9h-3v1.6h2.3v0.9h-2.3v2h3.1V51h-4.2v-6.2H78.6z"/>
		<path class="st1" d="M86,46.2l-1,0.3c-0.2-0.7-0.5-1-1.1-1c-0.3,0-0.6,0.1-0.8,0.2c-0.2,0.1-0.2,0.3-0.2,0.6
			c0,0.3,0.1,0.5,0.3,0.7c0.2,0.1,0.5,0.3,0.9,0.4l0.3,0.1c0.7,0.2,1.2,0.5,1.5,0.8c0.2,0.3,0.3,0.6,0.3,1.1c0,0.6-0.2,1.1-0.6,1.4
			c-0.4,0.3-0.9,0.4-1.6,0.4c-0.7,0-1.2-0.2-1.6-0.5c-0.4-0.3-0.6-0.7-0.8-1.2l1-0.3c0.1,0.4,0.3,0.7,0.5,0.9
			c0.2,0.2,0.5,0.3,0.8,0.3c0.8,0,1.2-0.3,1.2-0.9c0-0.3-0.1-0.5-0.3-0.7c-0.2-0.1-0.5-0.3-0.9-0.4l-0.3-0.1
			c-0.7-0.2-1.2-0.5-1.4-0.8c-0.2-0.3-0.3-0.6-0.3-1.1c0-0.5,0.2-0.9,0.6-1.3c0.4-0.3,0.9-0.4,1.5-0.4C84.9,44.7,85.6,45.2,86,46.2z
			"/>
		<path class="st1" d="M91.4,44.8v0.9h-1.8V51h-1.1v-5.3h-1.8v-0.9H91.4z"/>
		<path class="st1" d="M94.6,44.7c0.9,0,1.5,0.3,2,0.9c0.4,0.6,0.6,1.3,0.6,2.3c0,1.1-0.3,1.9-0.8,2.5c-0.5,0.5-1.1,0.7-1.8,0.7
			c-0.9,0-1.5-0.3-2-0.9c-0.4-0.6-0.6-1.3-0.6-2.3c0-1.1,0.3-1.9,0.8-2.5C93.3,44.9,93.9,44.7,94.6,44.7z M94.6,45.5
			c-0.5,0-0.9,0.2-1.2,0.7c-0.2,0.4-0.4,1-0.4,1.7c0,0.8,0.2,1.4,0.5,1.9c0.3,0.3,0.6,0.5,1,0.5c0.5,0,0.9-0.2,1.1-0.7
			c0.2-0.4,0.4-1,0.4-1.7c0-0.8-0.2-1.5-0.5-1.9C95.4,45.7,95.1,45.5,94.6,45.5z"/>
		<path class="st1" d="M98.4,44.8h2.2c1.5,0,2.2,0.6,2.2,1.7c0,0.4-0.1,0.8-0.4,1c-0.2,0.2-0.5,0.4-0.9,0.5l1.4,2.9h-1.2l-1.3-2.8
			l-0.3,0h-0.9V51h-1.1V44.8z M99.5,45.6v1.8h1.1c0.8,0,1.2-0.3,1.2-0.9c0-0.6-0.4-0.9-1.2-0.9H99.5z"/>
		<path class="st1" d="M108.1,44.8v0.9h-3v1.6h2.3v0.9h-2.3v2h3.1V51H104v-6.2H108.1z"/>
	</g>
</g>
</svg>
